<?xml version="1.0" encoding="utf-8"?>
<!-- Generator: Adobe Illustrator 19.2.1, SVG Export Plug-In . SVG Version: 6.00 Build 0)  -->
<svg version="1.1" id="Layer_1" xmlns="http://www.w3.org/2000/svg" xmlns:xlink="http://www.w3.org/1999/xlink" x="0px" y="0px"
	 viewBox="0 0 160 200" style="enable-background:new 0 0 160 200;" xml:space="preserve">
<style type="text/css">
	.st0{display:none;}
	.st1{display:inline;fill:#F12973;}
	.st2{display:inline;opacity:0.6;fill:#CF62B1;}
	.st3{display:inline;opacity:0.6;fill:#D1267E;}
	.st4{display:inline;}
	.st5{fill:#9E2290;}
	.st6{fill:#FFFFFF;}
	.st7{fill:#41BFF7;}
	.st8{fill:#0B231C;}
	.st9{display:inline;opacity:0.3;fill:#FFFFFF;}
	.st10{fill:#2E1F4A;}
	.st11{fill:#DDC5D2;}
	.st12{clip-path:url(#SVGID_2_);fill:#FFFFFF;}
	.st13{clip-path:url(#SVGID_2_);}
	.st14{display:inline;fill:#9E2290;}
	.st15{display:inline;opacity:0.4;fill:#FFFFFF;}
	.st16{fill:#269C44;}
	.st17{fill:#81C33F;}
	.st18{fill:#FCE314;}
	.st19{fill:#5FAC44;}
	.st20{display:inline;fill:#81C33F;}
	.st21{fill:#6AB147;}
	.st22{fill:#F5933C;}
	.st23{fill:#0A6B3E;}
	.st24{opacity:0.3;fill:#0A6B3E;}
	.st25{fill:#F05539;}
	.st26{fill:#F58A3C;}
	.st27{fill:#DD311B;}
	.st28{display:inline;fill:#F99F3E;}
	.st29{fill:#65E5C0;}
	.st30{fill:#39C499;}
	.st31{display:inline;fill:#2E1F4A;}
	.st32{clip-path:url(#SVGID_4_);fill:#DE293C;}
	.st33{clip-path:url(#SVGID_4_);fill:#FFFFFF;}
	.st34{clip-path:url(#SVGID_4_);}
	.st35{display:inline;fill:#F05539;}
	.st36{display:inline;fill:#DD311B;}
	.st37{fill:#007AA0;}
	.st38{fill:#009EDB;}
	.st39{clip-path:url(#SVGID_6_);}
	.st40{fill:#028DB7;}
	.st41{fill:#012023;}
	.st42{clip-path:url(#SVGID_6_);fill:#0D6F8E;}
	.st43{clip-path:url(#SVGID_6_);fill:#FFFFFF;}
	.st44{fill:#2EC0ED;}
	.st45{fill:#F99F3E;}
	.st46{fill:#23BAE8;}
</style>
<g class="st0">
	<path class="st1" d="M157.6,171.5c-0.1-0.1-0.2-0.1-0.3-0.2c-4-2.7-7.3,6.1-11.2,4.6c-8-3-16.5-15.8-16.6-50.3
		c-0.1-28,0-59.4-9.4-86.2c-3.8-10.7-11.6-23.7-21.8-29.6c-19.7-11.3-47.7,1-56.9,20.5c-8.6,18.2-6.7,39.6-6.2,59.3
		c0.1,5.2-0.1-3.9-0.4,22.5c-0.1,16.3,1.6,35.5-2.8,51.5c-2.2,8-8.6,14.6-17.2,14.9c-5.7,0.2-4.6-5.4-9.2-4.7
		c-5.9,0.9-4.9,9.3-2.3,12.5c9.5,11.5,26.1,5.2,34.8-3.1c12.9-12.2,12-31.8,13.9-48.1c0.6-5.7,3.8-1.7,6.1-0.4
		c5.3,3.1,3.1,32.3-0.3,48.6c-1.3,6.5,2.2,13.5,8.8,7.7c4.1-3.6,6.3-10.1,8-15.1c3.4-10,4.9-32.6,5.2-36.9
		c0.9-10.7,7.4-18.5,8.6,5.7c0.4,6.8,2.1,26.6,6.2,38c1.9,5.3,4.9,9.4,10.4,11.3c3,1,11.8,1.1,10-4.9c-2-6.4-8.8-8.5-9.7-16.3
		c-0.9-8.2-3.6-44.2,5.7-43c8.5,1,4.5,29.2,20.5,53.3c2.9,4.4,6.6,7.4,12.1,7.3c3.8-0.1,7-1.6,9.4-4.5
		C155.1,183.5,161.2,174.5,157.6,171.5z"/>
	<path class="st2" d="M83.7,65.4c12.2-8.6,25.7-19.2,33.7-32.5c-4.3-9.1-10.9-18.4-19.2-23.2c-19.7-11.3-47.7,1-56.9,20.5
		c-8.3,17.5-6.7,38-6.3,56.9C52.8,84.3,69.2,75.7,83.7,65.4z"/>
	<path class="st3" d="M54.2,63c3.4-2,10.4-7,9.5-11.7c-1.2-6.3-12.3-7.7-17.1-5.5c-5.2,2.3-12.9,12.2-8.2,17.7
		C42.1,67.7,50.1,65.3,54.2,63z"/>
	<path class="st3" d="M88.6,50.6c9-0.7,22.4-16.3,6.2-15.2C86.4,35.9,75,51.6,88.6,50.6z"/>
	<path class="st2" d="M108.9,48.9c1.8,0.4,4,0.1,5.9-1c10.6-6.3-0.4-13.8-7.6-6.7C103.2,45.1,105.4,48.2,108.9,48.9z"/>
	<path class="st2" d="M72.1,48.5c1.3,0.3,2.9,0.1,4.3-0.7c7.6-4.6-0.3-10.1-5.5-4.9C67.9,45.7,69.5,48,72.1,48.5z"/>
	<path class="st2" d="M51.9,86.9c1.3,0.3,2.9,0.1,4.3-0.7c7.6-4.6-0.3-10.1-5.5-4.9C47.8,84.1,49.4,86.4,51.9,86.9z"/>
	<path class="st3" d="M109,34.6c2.6,0.5,5.6-0.4,8.3-2c-2.1-4.5-4.8-9-8-13C103.4,24.4,100.3,33,109,34.6z"/>
	<path class="st1" d="M38.6,37.4c8.6,5.4,24.5,2.8,33.6,0.3c12.4-3.3,26.2-10.3,33.6-21.3c0.1-0.2,0.2-0.3,0.3-0.5
		c-2.4-2.5-5-4.6-7.8-6.2c-19.7-11.3-47.7,1-56.9,20.5C40.3,32.6,39.3,35,38.6,37.4z"/>
	<g class="st4">
		
			<ellipse transform="matrix(1.346629e-002 -0.9999 0.9999 1.346629e-002 -0.319 128.9142)" class="st5" cx="65.2" cy="64.6" rx="15.2" ry="15.2"/>
		
			<ellipse transform="matrix(1.348750e-002 -0.9999 0.9999 1.348750e-002 -0.321 128.9123)" class="st6" cx="65.2" cy="64.6" rx="11.8" ry="11.8"/>
		
			<ellipse transform="matrix(1.344995e-002 -0.9999 0.9999 1.344995e-002 -0.3184 128.9149)" class="st7" cx="65.2" cy="64.6" rx="8.1" ry="8.1"/>
		
			<ellipse transform="matrix(1.344568e-002 -0.9999 0.9999 1.344568e-002 -0.3176 128.9154)" class="st8" cx="65.2" cy="64.6" rx="5.4" ry="5.4"/>
		
			<ellipse transform="matrix(1.348012e-002 -0.9999 0.9999 1.348012e-002 7.7735 129.8882)" class="st6" cx="69.7" cy="61" rx="3.7" ry="3.7"/>
	</g>
	<g class="st4">
		
			<ellipse transform="matrix(0.7166 -0.6975 0.6975 0.7166 -15.6932 87.6354)" class="st5" cx="100" cy="63.1" rx="15.2" ry="15.2"/>
		<ellipse transform="matrix(0.7165 -0.6975 0.6975 0.7165 -15.693 87.637)" class="st6" cx="100" cy="63.1" rx="11.8" ry="11.8"/>
		<ellipse transform="matrix(0.7166 -0.6975 0.6975 0.7166 -15.693 87.6354)" class="st7" cx="100" cy="63.1" rx="8.1" ry="8.1"/>
		<ellipse transform="matrix(0.7166 -0.6975 0.6975 0.7166 -15.6934 87.6343)" class="st8" cx="100" cy="63.1" rx="5.4" ry="5.4"/>
		<ellipse transform="matrix(0.7166 -0.6975 0.6975 0.7166 -16.8707 83.4272)" class="st6" cx="94.2" cy="62.5" rx="3.7" ry="3.7"/>
	</g>
	<path class="st9" d="M82.9,19.1c1.8,4,8.8,3.9,11.9,2.5c3-1.3,6.6-4.2,5.4-7.9C97.3,4.7,79.1,10.5,82.9,19.1z"/>
	<path class="st2" d="M52.3,120.4c-6.4-3.4-9.6-10.9-3.8-19c3.8-5.2,14.1-9.4,20.4-6.5c13.1,6,9.3,21.8-2.5,26.2
		C61.5,123,56.3,122.5,52.3,120.4z"/>
	<path class="st9" d="M73,12.6c1,2.3,5,2.2,6.8,1.4c1.7-0.7,3.7-2.4,3-4.5C81.1,4.5,70.8,7.8,73,12.6z"/>
	<g class="st4">
		<path class="st10" d="M70.6,84.3c3.8,0.7,7.7,2.5,10.4,3.2c7.3,1.9,18.8-5.7,24.9-1.1c4.6,3.5,2.4,11.8-0.6,15.5
			c-8.2,9.8-27.7,8.2-37.3,1.6c-4.5-3-9.9-9.9-7.1-15.6C62.8,83.9,66.6,83.5,70.6,84.3z"/>
		<path class="st11" d="M105.3,101.8c1.2-1.5,2.3-3.7,2.8-6c-1.8-0.9-3.5-0.9-4.9-1.2c-9-2.3-29.9-3-39.7,4.8
			c1.3,1.6,2.9,3.1,4.4,4.1C77.6,110,97.1,111.7,105.3,101.8z"/>
		<g>
			<defs>
				<path id="SVGID_1_" d="M70.6,84.3c3.8,0.7,7.7,2.5,10.4,3.2c7.3,1.9,18.8-5.7,24.9-1.1c4.6,3.5,2.4,11.8-0.6,15.5
					c-8.2,9.8-27.7,8.2-37.3,1.6c-4.5-3-9.9-9.9-7.1-15.6C62.8,83.9,66.6,83.5,70.6,84.3z"/>
			</defs>
			<clipPath id="SVGID_2_">
				<use xlink:href="#SVGID_1_"  style="overflow:visible;"/>
			</clipPath>
			<path class="st12" d="M61.7,80.6c0,2.3-1.6,10.1,2.3,11.3c5.9,1.9,5.9-6.4,7-9.2L61.7,80.6z"/>
			<g class="st13">
				<path class="st6" d="M94.3,81.9c0.1,0.2,0.2,0.3,0.2,0.5C94.5,82.2,94.4,82.1,94.3,81.9z"/>
				<path class="st6" d="M94.6,82.4c0.1,0.4,0,0.8,0,1.3L87,84.6C87.1,95.4,99.6,92.8,94.6,82.4z"/>
			</g>
			<path class="st12" d="M84.7,81.4c-0.8-0.4-0.5,0.3-0.9,0.4L76,81.2c-1.3,3-1.2,9.9,2.8,11.2C85.2,94.6,85,85.5,84.7,81.4z"/>
			<path class="st12" d="M107.5,79c-0.8-0.4-0.5,0.3-0.9,0.4l-7.8-0.6c-1.3,3-1.2,9.9,2.8,11.2C108,92.2,107.8,83.1,107.5,79z"/>
		</g>
	</g>
	<path class="st14" d="M84.4,128.7c-19.1-3.9-8.4,15.2-11.6,39c-2.7,20.3-13.5,23.1-13.5,23.1s-0.1,0.3-0.2,0.8
		c1.5,2,4.1,2.4,7.5-0.5c4.1-3.6,6.3-10.1,8-15.1c3.4-10,4.9-32.6,5.2-36.9c0.5-6,3.3-10.7,5.5-9.7
		C85.4,129.1,84.4,128.7,84.4,128.7z"/>
	<path class="st14" d="M58.1,134.7c1.2,0.6,0.9,1.5-1.1-1.6c-4.9-7.5-12.7-8.1-13.5-2.9c-2.7,17.4,2.6,19.4-0.9,36.7
		c-2,9.8-9,17.6-18.6,20.3c-9.6,2.7-19.7-0.7-21.3-11.6c-5,15.4,12.6,20.5,24.9,15.5C57.2,179.3,48.9,129.8,58.1,134.7z"/>
	<path class="st14" d="M88,139.2c0.9,22.1,3.1,35.3,6.5,44.8c1.9,5.3,5.4,8.2,10.9,10c2.9,1,11,0.7,9.6-4.9
		C93.5,193.1,93.8,145.6,88,139.2z"/>
	<path class="st14" d="M134.6,178.4c-9.5-9.7-14.9-28.6-14.7-41.3c0.2-17.9-11-6.7-11-6.7c3.5,25.6,10.5,34.4,22.7,52.7
		c2.9,4.4,6.6,7.4,12.1,7.3c3.8-0.1,7-1.6,9.4-4.5c1.7-2,6.2-8.6,5.6-12.4C153.5,181.6,142.1,186.1,134.6,178.4z"/>
	<path class="st15" d="M145.4,178.3c8.1,4.8,1.8,12.1-5.6,8.7C130.2,182.5,135.2,172.3,145.4,178.3z"/>
	<path class="st15" d="M60,177.9c2.6-7.3,7.6-4.1,5.7,2.3C63.3,188.6,56.6,187.1,60,177.9z"/>
	<path class="st2" d="M129.5,125.6c0-17,0-35.1-2.1-52.8c-2.1,1.5-3.8,2.7-4.3,3.2c-5.9,5.7-10.9,12.6-13.3,20.4
		c-3.9,12.6,0.7,24.3,11.1,32.1c2.7,2,5.6,3.7,8.6,5.1C129.5,131,129.5,128.3,129.5,125.6z"/>
</g>
<g class="st0">
	<g class="st4">
		<g>
			<path class="st16" d="M108.7,81.4c18.6-9.7,26.1-17.7,33.4-28.3c1.5,1.8,1.3,3.4,3.2,4.7c-12.4,22.3-27.8,31.6-32.9,35.1
				C111.9,93.2,110,85,108.7,81.4z"/>
		</g>
		<g>
			<path class="st17" d="M155.4,59.8c5-3.8,4.9-9.3-2.3-8.4c0,0,4.5-5.6,0.4-9c-2.8-2.3-6.3,1.8-8.7,2.8c-0.7-2.5-0.6-5-3.7-5.4
				c-3.5-0.4-5.3,3.4-6.3,5.9c-2,4.8-1.6,11.8,2.2,15.6C142.1,66.4,150.5,63.6,155.4,59.8z"/>
			<path class="st18" d="M146.5,50.8c-8.2-3.5-11.1,5.8-3.9,9.3C150,63.6,153.5,53.8,146.5,50.8z"/>
			<path class="st18" d="M140.7,41.9c-3.3,0.1-4.3,5-0.8,5.5C143.8,48.1,144.8,41.8,140.7,41.9z"/>
			<path class="st18" d="M151.9,43.5c-4-0.4-5.2,5.8-0.9,6.2C154.9,50,155.9,43.9,151.9,43.5z"/>
			<path class="st18" d="M156,52.6c-3.1-0.3-4,4.4-0.7,4.7C158.3,57.6,159.1,52.9,156,52.6z"/>
		</g>
	</g>
	<g class="st4">
		<g>
			<path class="st16" d="M51.3,81.4c-18.6-9.7-26.1-17.7-33.4-28.3c-1.5,1.8-1.3,3.4-3.2,4.7c12.4,22.3,27.8,31.6,32.9,35.1
				C48.1,93.2,50,85,51.3,81.4z"/>
		</g>
		<g>
			<path class="st17" d="M4.6,59.8c-5-3.8-4.9-9.3,2.3-8.4c0,0-4.5-5.6-0.4-9c2.8-2.3,6.3,1.8,8.7,2.8c0.7-2.5,0.6-5,3.7-5.4
				c3.5-0.4,5.3,3.4,6.3,5.9c2,4.8,1.6,11.8-2.2,15.6C17.9,66.4,9.5,63.6,4.6,59.8z"/>
			<path class="st18" d="M13.5,50.8c8.2-3.5,11.1,5.8,3.9,9.3C10,63.6,6.5,53.8,13.5,50.8z"/>
			<path class="st18" d="M19.3,41.9c3.3,0.1,4.3,5,0.8,5.5C16.2,48.1,15.2,41.8,19.3,41.9z"/>
			<path class="st18" d="M8.1,43.5c4-0.4,5.2,5.8,0.9,6.2C5.1,50,4.1,43.9,8.1,43.5z"/>
			<path class="st18" d="M4,52.6c3.1-0.3,4,4.4,0.7,4.7C1.7,57.6,0.9,52.9,4,52.6z"/>
		</g>
	</g>
	<g class="st4">
		<path class="st16" d="M55.3,127.9c0.3,3.1,2.1,6.2,3.1,9.2c2.3,6.7,4.3,13.5,6.5,20.3c1.4,4.2,4.8,11.2,1.5,15.3
			c3-1,4.7-0.4,8.1-0.5c1.3-14.7-6.8-30-7.8-44.3H55.3z"/>
		<path class="st17" d="M67.3,165c-3.1,0.2-7.3-0.3-9.1-2c0,1.8,3.1,3.3,5.2,4.3c-1.5,0-3.1,0.1-4.4-0.2c0.2,0.5,0.1,1,0.6,1.5
			c-5.3-1.7-13.9-1.1-15.9,3.1c-2.2,4.4,7.8,6,13,5.9c8.6-0.3,15.1,0.6,19.6-2.5c3-2.1,3-8.2-1.6-10H67.3z"/>
	</g>
	<g class="st4">
		<path class="st16" d="M102.8,127.9c-0.3,3.1-2.1,6.2-3.1,9.2c-2.3,6.7-4.3,13.5-6.5,20.3c-1.4,4.2-4.8,11.2-1.5,15.3
			c-3-1-4.7-0.4-8.1-0.5c-1.3-14.7,4.6-30.4,7.8-44.3H102.8z"/>
		<path class="st17" d="M90.8,165c3.1,0.2,7.3-0.3,9.1-2c0,1.8-3.1,3.3-5.2,4.3c1.5,0,3.1,0.1,4.4-0.2c-0.2,0.5-0.1,1-0.6,1.5
			c5.3-1.7,13.9-1.1,15.9,3.1c2.2,4.4-7.8,6-13,5.9c-8.6-0.3-15.1,0.6-19.6-2.5c-3-2.1-3-8.2,1.6-10H90.8z"/>
	</g>
	<g class="st4">
		<g>
			<path class="st19" d="M60.3,41.9c-2.5-2.5-6.3-3.9-9.5-5.5c-4.9-2.4-9.6-4.3-13.4-7.9c-3.9,6-2.3,17.7-0.1,24
				c1.2,3.5,7.2,15,12,14.6l16.4-19.9C63.2,47.2,62.1,43.6,60.3,41.9z"/>
			<path class="st18" d="M50.3,60.1c0,0-10.5-5.8-8.4-21c0,0,16.9,3.7,17.2,13.2L50.3,60.1z"/>
		</g>
		<g>
			<path class="st19" d="M96.6,41.9c2.5-2.5,6.3-3.9,9.5-5.5c4.9-2.4,9.6-4.3,13.4-7.9c3.9,6,2.3,17.7,0.1,24
				c-1.2,3.5-7.2,15-12,14.6L91.2,47.3C93.8,47.2,94.8,43.6,96.6,41.9z"/>
			<path class="st18" d="M106.6,60.1c0,0,10.5-5.8,8.4-21c0,0-16.9,3.7-17.2,13.2L106.6,60.1z"/>
		</g>
	</g>
	<path class="st20" d="M117,95.5c1.1,0.6,2.4,1,3.6,1c-1.2,0-6.1-12.1-6.6-13.8c-2.1-6.9-1.7-14.2-2.7-21.3
		c-0.4-2.8-1.3-5.4-2.5-7.6c0.5-1.2,1.3-2.3,2.4-3.1c-1.2-1.3-3.2-1.8-5-1.6c0.5-0.6,1.3-2.3,1.8-2.9c-1.8-0.3-3.8-0.1-5.7,0.2
		c-0.6-0.5-1.3-0.9-1.9-1.3c-0.9-0.6-1.8-1.1-2.8-1.5c-0.2-2.8-0.8-4.9-3.3-7.7c-2.3-2.6-7.5-8.4-6.8-1c-0.9-2.8-3-5.5-5.8-6.8
		c-1.1,1.4-1.9,3.4-1.9,5.3c0-4.1-3.7-7.5-5.6-10.8c-0.9,3.2-1.3,6.3-2.8,9.4c-1.2,2.4-3.5,4.3-4.2,6.8c-0.6-1.6-0.9-3.6-0.8-5.5
		c-1.6,3.6-5.6,6.5-5.7,10.5c-0.8,0.4-1.7,0.9-2.5,1.4c-0.3,0.2-0.6,0.4-0.8,0.5c-3.1,0-6.3,0.3-9.3,0.5c0.8,0.9,1.3,1.8,2.5,2.2
		c-1.3-0.3-2.6-0.9-4-1.2c0.1,2.2,1.3,3.9,2.9,5.3c-1.8,0.2-3.7-0.8-4.7-1.8c0.6,2.5,2.3,3.6,4.1,4.6c-0.8,1.9-1.4,3.9-1.7,6.1
		c-1.1,7.8-0.6,15.7-2.2,23.5c-0.6,3.1-1.5,6.1-2.5,9.1c-1.5,2.6-2.4,5.6-4.1,8.1c-2.2,3.2-5.3,5.5-7.5,8.5c1.2,0.7,2.9,0.8,4.4,0.8
		c-3,5.4-2.5,15.9-0.7,21c0.4-1.6,1.3-3,2.6-3.8c-0.1,6.7,5.2,14.5,10.4,18.5c-0.4-1.2-0.5-2.2-0.4-3.6c2.2,4.4,9.5,9.6,14.4,9.8
		c0,0,0-1.9,0.1-2.1c1.4-2.1,10.7,1.8,12.5,2.1c2.3,0.3,15.3,2,15.7-1.9c-0.1,1.2-0.5,2.5-1.3,3.5c5.2-2.7,11-3.9,15.4-7.9
		c-0.5,1.6-1.1,3.3-1.4,4.9c6-0.8,8.9-9.5,13.2-12.9c-0.3,1.5-0.5,3.3-0.2,4.9c5.9-4.3,6.9-13.9,7.2-20.5c0.9,1,1.7,3.1,1.8,3.8
		C124.9,117.8,125.3,101.9,117,95.5z"/>
	<g class="st4">
		<g>
			<g>
				<circle class="st21" cx="66" cy="76.2" r="10.3"/>
				<circle class="st6" cx="66" cy="76.2" r="8"/>
				<circle class="st22" cx="66" cy="76.2" r="5.5"/>
				<circle class="st8" cx="66" cy="76.2" r="3.7"/>
				<circle class="st6" cx="69" cy="73.7" r="2.5"/>
			</g>
			<g>
				<circle class="st21" cx="89.2" cy="76.7" r="8.2"/>
				<circle class="st6" cx="89.2" cy="76.7" r="6.4"/>
				<circle class="st22" cx="89.2" cy="76.7" r="4.4"/>
				<circle class="st8" cx="89.2" cy="76.7" r="2.9"/>
				<circle class="st6" cx="91.6" cy="74.7" r="2"/>
			</g>
			<path class="st23" d="M72.5,70.9c-3.1,1.2-7.4-0.4-10.2-1c-1.2-0.3-10.8-5.4-10.6-5.5c2.7-1.2,6.3,0.4,9.1,0.5
				c-1.7-0.8-2.4-2.6-2.6-4.4c2.3,0.3,4.4,1.9,6.6,2.8c-0.8-1.4-1.5-2.6-1.9-4.2c1.3-0.3,7.4,3.3,9.1,4.2c3.1,1.5,4.9,4.4,1.8,6.9
				C73.4,70.5,72.9,70.7,72.5,70.9z"/>
		</g>
		<path class="st23" d="M83.5,73.8c3.1,1.2,7.4-0.4,10.2-1c1.2-0.3,10.8-5.4,10.6-5.5c-2.7-1.2-6.3,0.4-9.1,0.5
			c1.7-0.8,2.4-2.6,2.6-4.4c-2.3,0.3-4.4,1.9-6.6,2.8c0.8-1.4,1.5-2.6,1.9-4.2c-1.3-0.3-7.4,3.3-9.1,4.2c-3.1,1.5-4.9,4.4-1.8,6.9
			C82.6,73.4,83,73.6,83.5,73.8z"/>
	</g>
	<g class="st4">
		<g>
			<path class="st6" d="M62.9,92.9c0,0-6,6,2,9.1c8.1,3.2,7.9-5.1,7.9-5.1L62.9,92.9z"/>
			<path class="st6" d="M92.8,92.9c0,0,6,6-2,9.1c-8.1,3.2-7.9-5.1-7.9-5.1L92.8,92.9z"/>
		</g>
		<g>
			<path class="st23" d="M77.9,97.9c-15.7,0-22.1-11.2-22.4-11.7c-0.5-1-0.2-2.2,0.8-2.7c1-0.5,2.2-0.2,2.7,0.8l0,0
				c0.2,0.4,5.8,9.9,19.6,9.6c13.7-0.3,17.1-10.9,17.1-11c0.3-1.1,1.4-1.6,2.5-1.3c1.1,0.3,1.6,1.4,1.3,2.5
				c0,0.1-4.3,13.4-20.8,13.8C78.4,97.9,78.2,97.9,77.9,97.9z"/>
		</g>
	</g>
	<g class="st4">
		<ellipse transform="matrix(0.379 -0.9254 0.9254 0.379 -48.2141 101.3721)" class="st24" cx="51.4" cy="86.6" rx="4.8" ry="3.6"/>
		<circle class="st24" cx="114.8" cy="104.6" r="4.8"/>
		<circle class="st24" cx="69.4" cy="53.7" r="3.2"/>
		<circle class="st24" cx="99.6" cy="111.1" r="2.5"/>
		<circle class="st24" cx="69" cy="122.1" r="2.5"/>
		<circle class="st24" cx="40.7" cy="107.2" r="2.5"/>
		
			<ellipse transform="matrix(0.9231 -0.3847 0.3847 0.9231 -23.7146 46.2605)" class="st24" cx="103.8" cy="82.4" rx="4.6" ry="6.7"/>
		
			<ellipse transform="matrix(0.4096 -0.9123 0.9123 0.4096 -64.8454 111.9952)" class="st24" cx="54.1" cy="106.1" rx="6.7" ry="5.7"/>
		<ellipse transform="matrix(0.9131 -0.4077 0.4077 0.9131 -10.8776 41.1784)" class="st24" cx="91.2" cy="46.1" rx="2.7" ry="4"/>
		<circle class="st24" cx="79.9" cy="108.8" r="4"/>
	</g>
</g>
<g class="st0">
	<g class="st4">
		<g>
			<g>
				<path class="st25" d="M131.4,154.6c15.9-24.7,14.4-43.1,10.4-54.2c-4.4-12.3-12.9-18.5-13.3-18.7l-5.6,7.8l2.8-3.9l-2.8,3.9
					c1.1,0.8,26.1,19.9,0.4,60L131.4,154.6z"/>
			</g>
			<path class="st26" d="M116.1,147.8c2.6-4.2,7.5-4.2,11.8-4.2l9,3.2c3.1,1.6,9.3,7.2,6.9,11.7c-2.1,4.1-8,2.7-9.6-1.1
				c-0.5,12.8-17.8,14.4-12.2-2C116.2,156.3,113.2,152.5,116.1,147.8z"/>
		</g>
		<ellipse class="st26" cx="142.5" cy="113.2" rx="5.6" ry="5.8"/>
	</g>
	<g class="st4">
		<g>
			<g>
				<path class="st25" d="M27.6,154.6c-15.9-24.7-14.4-43.1-10.4-54.2C21.6,88.2,30.1,82,30.4,81.7l5.6,7.8l-2.8-3.9l2.8,3.9
					c-1.1,0.8-26.1,19.9-0.4,60L27.6,154.6z"/>
			</g>
			<path class="st26" d="M42.9,147.8c-2.6-4.2-7.5-4.2-11.8-4.2l-9,3.2c-3.1,1.6-9.3,7.2-6.9,11.7c2.1,4.1,8,2.7,9.6-1.1
				c0.5,12.8,17.8,14.4,12.2-2C42.8,156.3,45.8,152.5,42.9,147.8z"/>
		</g>
		<ellipse class="st26" cx="17.5" cy="113.2" rx="5.6" ry="5.8"/>
	</g>
	<g class="st4">
		<g>
			<path class="st27" d="M65.9,186.9c-2,0-3.8-0.8-4.5-2.1C39.3,142.8,48.1,103,49,99.9c0.5-1.7,3.1-2.9,5.7-2.5
				c2.6,0.4,4.2,2.1,3.7,3.8c-0.2,0.5-11.1,37.6,12,81.3c0.9,1.7-0.4,3.5-2.9,4.1C67,186.8,66.4,186.9,65.9,186.9z"/>
		</g>
		<path class="st26" d="M70.2,182.4l-9.6,0.4c-2,2.3-4.5,2.7-8.3,3.2c-7.9,1.1-17.6-0.1-23.9,4c-7.7,5-2.4,7.5,6,8.1
			c10.2,0.7,21.2-0.7,30.8-3C73.5,193.1,74.9,187.2,70.2,182.4z"/>
	</g>
	<g class="st4">
		<g>
			<path class="st27" d="M89.3,186.9c2,0,3.8-0.8,4.5-2.1c24.1-45.6,12.9-83.2,12.4-84.8c-0.5-1.7-3.1-2.9-5.7-2.5
				c-2.6,0.4-4.2,2.1-3.7,3.8c0.2,0.5,11.1,37.6-12,81.3c-0.9,1.7,0.4,3.5,2.9,4.1C88.3,186.8,88.8,186.9,89.3,186.9z"/>
		</g>
		<path class="st26" d="M85.1,182.4l9.6,0.4c2,2.3,4.5,2.7,8.3,3.2c7.9,1.1,17.6-0.1,23.9,4c7.7,5,2.4,7.5-6,8.1
			c-10.2,0.7-21.2-0.7-30.8-3C81.7,193.1,80.4,187.2,85.1,182.4z"/>
	</g>
	<g class="st4">
		<path class="st27" d="M52.3,12.7c-1.8-3.5-3.8-12.2-9-10.8c-12.7,3.2-4,35.2,6.9,31.5l16.5-11.7C59,21.7,56,19.7,52.3,12.7z"/>
		<path class="st25" d="M105.6,12.7c1.8-3.5,3.8-12.2,9-10.8c12.7,3.2,4,35.2-6.9,31.5L91.3,21.7C99,21.7,101.9,19.7,105.6,12.7z"/>
	</g>
	<path class="st28" d="M127.4,71.5c-3.9-17.3-10.8-33.9-22-47.8c-12.7-15.8-39.9-15.8-52.6,0c-11.2,13.9-18.1,30.5-22,47.8
		c-5.5,24.3,0.2,48.6,16.4,64.4c18.9,18.4,44.9,18.5,63.9,0C127.2,120.1,132.9,95.7,127.4,71.5z"/>
	<g class="st4">
		<circle class="st25" cx="78.2" cy="63.1" r="16.5"/>
		<circle class="st6" cx="78.2" cy="63.1" r="12.8"/>
		<circle class="st29" cx="78.2" cy="63.1" r="8.8"/>
		<circle class="st8" cx="78.2" cy="63.1" r="5.8"/>
		<circle class="st6" cx="83" cy="59.2" r="4"/>
	</g>
	<g class="st4">
		<ellipse class="st25" cx="50" cy="63.1" rx="12.1" ry="15.5"/>
		<ellipse class="st6" cx="50" cy="63.1" rx="8.7" ry="11.1"/>
		<ellipse class="st30" cx="50" cy="62.6" rx="6" ry="5.8"/>
		<ellipse class="st8" cx="50" cy="62" rx="4" ry="4"/>
		<ellipse class="st6" cx="53.3" cy="59.7" rx="2.7" ry="3.5"/>
	</g>
	<g class="st4">
		<ellipse class="st25" cx="106.6" cy="62.5" rx="12.1" ry="15.5"/>
		<ellipse class="st6" cx="106.6" cy="62.5" rx="8.7" ry="11.1"/>
		<ellipse class="st30" cx="106.6" cy="62" rx="6" ry="5.8"/>
		<ellipse class="st8" cx="106.6" cy="61.4" rx="4" ry="4"/>
		<ellipse class="st6" cx="109.9" cy="59" rx="2.7" ry="3.5"/>
	</g>
	<path class="st31" d="M110.3,86.3c0,1.3-14.4,3.5-15.5,3.7c-10.6,1.6-21.5,1.7-32.2,0.3c-1.2-0.2-17.6-2.4-17.7-4
		c0.2,16.7,8.9,37,26.4,41.7c18.2,4.8,32-11.8,37-27.4C109.9,95.7,110.3,91.3,110.3,86.3z"/>
	<g class="st4">
		<defs>
			<path id="SVGID_3_" d="M110.3,86.3c0,1.3-14.4,3.5-15.5,3.7c-10.6,1.6-21.5,1.7-32.2,0.3c-1.2-0.2-17.6-2.4-17.7-4
				c0.2,16.7,8.9,37,26.4,41.7c18.2,4.8,32-11.8,37-27.4C109.9,95.7,110.3,91.3,110.3,86.3z"/>
		</defs>
		<clipPath id="SVGID_4_">
			<use xlink:href="#SVGID_3_"  style="overflow:visible;"/>
		</clipPath>
		<path class="st32" d="M99.6,110.2c-4.2-8.1-16-7.9-20.9-0.1c-3.6-5.1-12.2-8.3-17.3-3.7c-2.4,2.2-3.5,7.9-3.5,14
			c3.7,5,8.5,8.9,14.4,10.6c12.5,3.6,22.7-4.9,28.9-16C100.9,113.5,100.4,111.8,99.6,110.2z"/>
		<path class="st33" d="M73.9,87.6c0.4,3,0.5,10.2,4.6,10.5c3.3-0.1,4-7.1,5.3-10.7L73.9,87.6z"/>
		<path class="st33" d="M92.8,83.9l12.8-0.5c1.4,6.5,1.5,12.4-2.7,17.9C103.5,94.7,97.7,87.6,92.8,83.9z"/>
		<path class="st33" d="M87.1,88.3l5.5-0.5c0.3-1.9,0.4,9.9-1.5,10.3C88.1,98.7,85.4,90,87.1,88.3z"/>
		<g class="st34">
			<path class="st6" d="M84,129.2c-0.4-3-0.5-10.2-4.6-10.5c-3.3,0.1-4,7.1-5.3,10.7L84,129.2z"/>
			<path class="st6" d="M70.8,128.6l-5.5,0.5c-0.3,1.9-0.4-9.9,1.5-10.3C69.8,118.1,72.5,126.8,70.8,128.6z"/>
			<g>
				<path class="st6" d="M87.2,130.2l5.7-0.3c0.3,1.9,0.4-9.9-1.5-10.3C88.3,118.9,85.5,128.4,87.2,130.2z"/>
			</g>
		</g>
		<path class="st33" d="M61.7,83.9l-12.8-0.5c-1.4,6.5-1.5,12.4,2.7,17.9C50.9,94.7,56.7,87.6,61.7,83.9z"/>
		<path class="st33" d="M68.9,88.3l-5.5-0.5c-0.3-1.9-0.4,9.9,1.5,10.3C68,98.7,70.6,90,68.9,88.3z"/>
	</g>
	<ellipse class="st35" cx="49.7" cy="148" rx="5.6" ry="4"/>
	<ellipse class="st35" cx="106" cy="148" rx="5.6" ry="4"/>
	<path class="st36" d="M29.5,197.3c0,0,5.8-6.1,21.3-8.3c0,0-20.7-1.4-24.4,6.8L29.5,197.3z"/>
	<path class="st36" d="M124.6,197.7c0,0-5.8-6.1-21.3-8.3c0,0,20.7-1.4,24.4,6.8L124.6,197.7z"/>
</g>
<g>
	<g>
		<path class="st37" d="M48.6,16.2C45,13.5,40.7,5,36.1,4.3c-14.9-2.3-3.7,42,18.8,33.4l11.2-18.1C60,22.5,53.9,20.2,48.6,16.2z"/>
		<path class="st37" d="M113.8,16.2c3.6-2.7,7.9-11.2,12.5-11.9c14.9-2.3,3.7,42-18.8,33.4L96.3,19.6
			C102.4,22.5,108.5,20.2,113.8,16.2z"/>
	</g>
	<path class="st37" d="M32.4,143.1c-7.3,11.4-14.5,30-8.8,36.8c6.2,2.9,7.6-2.4,6.9-7c2.6,6.5,10.2,10.5,9.1-1.4
		c2.5,5.7,8.4,0.4,5.6-6.2c-2.7-6.2-5.7-7.2-2.8-15.3c3.5-9.9,16.6-21.3,27.2-21.7v-9.8C55.7,117.7,39.2,132.5,32.4,143.1z"/>
	<path class="st37" d="M129.9,143.1c7.3,11.4,14.5,30,8.8,36.8c-6.2,2.9-7.6-2.4-6.9-7c-2.6,6.5-10.2,10.5-9.1-1.4
		c-2.5,5.7-8.4,0.4-5.6-6.2c2.7-6.2,5.7-7.2,2.8-15.3c-3.5-9.9-16.6-21.3-27.2-21.7v-9.8C106.6,117.7,123.1,132.5,129.9,143.1z"/>
	<path class="st37" d="M43.9,156.2c0.5,9.5,6.9,19.9,13.5,27.5c-5.6-1.3-15.7,0.5-18.6,5.2c-4,6.7,8.3,8.2,14.9,7.7
		c4.5-0.4,18.9-0.8,21.3-4.1c2.4-3.3-1.8-18.9-3.9-22L43.9,156.2z"/>
	<path class="st37" d="M118.2,155.7c-0.5,9.5-6.9,19.9-13.5,27.5c5.6-1.3,15.7,0.5,18.6,5.2c4,6.7-8.3,8.2-14.9,7.7
		c-4.5-0.4-18.9-0.8-21.3-4.1c-2.4-3.3,1.8-18.9,3.9-22L118.2,155.7z"/>
	<path class="st38" d="M101,81.4H60.5c5.6,24.5-18.2,48.7-17.5,73.3c1.1,37.5,74.3,37.2,75.4,0C119.2,130.1,95.4,105.9,101,81.4z"/>
	<path class="st38" d="M140.1,93.5c0.3-5.6-1.5-22.3-7.4-27.6c-3.3-8.7-8.1-17.4-11.3-24.3c-5.4-11.6-14.3-19.2-24.3-22.9
		c-2.3-6.4-4.7-14.3-10.7-17.3c-0.2,3.9,0,7.9-0.2,11.7c-2.2-1.9-3.9-4.9-6.7-6.1c-0.1,1.5-1.6,3.3-1.7,4.7
		c-2.7-2.2-4.8-5.7-8.1-6.1c-0.5,3.4-0.3,7.1,1.4,10.1c-3.5-1.8-9.3-5.5-9.9-10c-2.8,6.1-0.2,10.5,2.4,14.5
		C61.4,17,44.9,37.7,43.8,39.7c-5.1,9.3-8.5,19.4-14.1,28.5C24,77.5,18.5,86.8,19.3,98.2c0.6-2.5,2.6-4.6,4.9-5.8
		c-1,6.8,3.8,17.2,8.4,21.9c0-1.6,0.7-2.9,0.6-4.5c3.2,6.6,9.7,8.5,15.8,10.9c-0.4-0.9-0.4-1.9-0.8-2.8c3.7,0.8,7.4,1.1,11.1,1.3
		c0.2,0.1,0.5,0.2,0.7,0.2c10.8,3.3,25,4,38.4,1.4l-2.3,4.8c5.4-4.2,15.8-0.5,20.3-8.1c-0.6,2.2-1.1,4.5-1.3,6.6
		c5.4-2.2,11.6-8.2,13.9-13.3c0.5,1.6,2.2,4.2,2.7,5.6c1.2-8.2,3-15.3,3.6-23.2c0.5-1.6,0.8-3.2,1.1-4.9
		C137.8,88.8,138.5,93.2,140.1,93.5z"/>
	<g>
		<defs>
			<path id="SVGID_5_" d="M111.5,76.5c-4-8-15.2-8.2-25.1-8.2C72.9,68.4,42.7,62.8,45,85.2c3,29.1,65.5,30.7,67.9,0.7
				C113.3,81.9,112.7,78.9,111.5,76.5z"/>
		</defs>
		<clipPath id="SVGID_6_">
			<use xlink:href="#SVGID_5_"  style="overflow:visible;"/>
		</clipPath>
		<g class="st39">
			<path class="st40" d="M64.7,99C64.1,99.2,64.2,99.3,64.7,99L64.7,99z"/>
			<path class="st41" d="M111.5,76.5c-4-8-15.2-8.2-25.1-8.2C72.9,68.4,42.7,62.8,45,85.2c3,29.1,65.5,30.7,67.9,0.7
				C113.3,81.9,112.7,78.9,111.5,76.5z"/>
		</g>
		<path class="st42" d="M92.6,81.7c-6,0.7-8.9,7.7-14.7,8.4c-4.3,0.5-6.7-2.7-10.4-3.6c-6.9-1.5-13.8,3-18.1,9.1
			c13.6,17,54.2,16.3,62.3-4.1C107.5,85.3,100.5,80.8,92.6,81.7z"/>
		<path class="st43" d="M52.1,69.8c0,0,10.5,27.2,16.1,24.4s4.9-27.9,4.9-27.9S60.5,64.9,52.1,69.8z"/>
		<path class="st43" d="M107.3,69.8c0,0-10.5,27.2-16.1,24.4c-5.6-2.8-4.9-27.9-4.9-27.9S98.9,64.9,107.3,69.8z"/>
	</g>
	<g>
		<path class="st40" d="M64.7,99C64.1,99.2,64.2,99.3,64.7,99L64.7,99z"/>
	</g>
	<g>
		
			<ellipse transform="matrix(1.343478e-002 -0.9999 0.9999 1.343478e-002 14.3318 115.2187)" class="st44" cx="65.6" cy="50.3" rx="14.2" ry="14.2"/>
		
			<ellipse transform="matrix(1.347905e-002 -0.9999 0.9999 1.347905e-002 14.3282 115.2161)" class="st6" cx="65.6" cy="50.3" rx="11" ry="11"/>
		
			<ellipse transform="matrix(1.347667e-002 -0.9999 0.9999 1.347667e-002 14.3285 115.2164)" class="st25" cx="65.6" cy="50.3" rx="7.6" ry="7.6"/>
		
			<ellipse transform="matrix(1.352146e-002 -0.9999 0.9999 1.352146e-002 14.3259 115.2147)" class="st8" cx="65.6" cy="50.3" rx="5" ry="5"/>
		
			<ellipse transform="matrix(1.348429e-002 -0.9999 0.9999 1.348429e-002 21.8974 116.128)" class="st6" cx="69.8" cy="47" rx="3.4" ry="3.4"/>
	</g>
	<g>
		
			<ellipse transform="matrix(0.7165 -0.6975 0.6975 0.7165 -9.7897 81.2799)" class="st44" cx="95.1" cy="52.7" rx="12.4" ry="12.4"/>
		<ellipse transform="matrix(0.7166 -0.6975 0.6975 0.7166 -9.7909 81.2758)" class="st6" cx="95.1" cy="52.7" rx="9.6" ry="9.6"/>
		<ellipse transform="matrix(0.7166 -0.6975 0.6975 0.7166 -9.7912 81.2753)" class="st45" cx="95.1" cy="52.7" rx="6.6" ry="6.6"/>
		<ellipse transform="matrix(0.7165 -0.6975 0.6975 0.7165 -9.7902 81.2787)" class="st8" cx="95.1" cy="52.7" rx="4.4" ry="4.4"/>
		<ellipse transform="matrix(0.7165 -0.6976 0.6976 0.7165 -10.7517 77.8421)" class="st6" cx="90.4" cy="52.1" rx="3" ry="3"/>
	</g>
	<path class="st46" d="M77.2,174.2c-12.3-0.4-24.1-6.1-27.2-18.5c-2.6-10.6,4.2-19.8,13.8-24.1c14.2-6.4,32.1-5.1,41.5,8.5
		C120,161,97.8,174.9,77.2,174.2z"/>
</g>
</svg>
