<?xml version="1.0" encoding="utf-8"?>
<!-- Generator: Adobe Illustrator 19.2.1, SVG Export Plug-In . SVG Version: 6.00 Build 0)  -->
<svg version="1.1" id="Layer_1" xmlns="http://www.w3.org/2000/svg" xmlns:xlink="http://www.w3.org/1999/xlink" x="0px" y="0px"
	 viewBox="0 0 160 200" style="enable-background:new 0 0 160 200;" xml:space="preserve">
<style type="text/css">
	.st0{fill:#F12973;}
	.st1{opacity:0.6;fill:#CF62B1;}
	.st2{opacity:0.6;fill:#D1267E;}
	.st3{fill:#9E2290;}
	.st4{fill:#FFFFFF;}
	.st5{fill:#41BFF7;}
	.st6{fill:#0B231C;}
	.st7{opacity:0.3;fill:#FFFFFF;}
	.st8{fill:#2E1F4A;}
	.st9{fill:#DDC5D2;}
	.st10{clip-path:url(#SVGID_2_);fill:#FFFFFF;}
	.st11{clip-path:url(#SVGID_2_);}
	.st12{opacity:0.4;fill:#FFFFFF;}
</style>
<g>
	<path class="st0" d="M157.6,171.5c-0.1-0.1-0.2-0.1-0.3-0.2c-4-2.7-7.3,6.1-11.2,4.6c-8-3-16.5-15.8-16.6-50.3
		c-0.1-28,0-59.4-9.4-86.2c-3.8-10.7-11.6-23.7-21.8-29.6c-19.7-11.3-47.7,1-56.9,20.5c-8.6,18.2-6.7,39.6-6.2,59.3
		c0.1,5.2-0.1-3.9-0.4,22.5c-0.1,16.3,1.6,35.5-2.8,51.5c-2.2,8-8.6,14.6-17.2,14.9c-5.7,0.2-4.6-5.4-9.2-4.7
		c-5.9,0.9-4.9,9.3-2.3,12.5c9.5,11.5,26.1,5.2,34.8-3.1c12.9-12.2,12-31.8,13.9-48.1c0.6-5.7,3.8-1.7,6.1-0.4
		c5.3,3.1,3.1,32.3-0.3,48.6c-1.3,6.5,2.2,13.5,8.8,7.7c4.1-3.6,6.3-10.1,8-15.1c3.4-10,4.9-32.6,5.2-36.9
		c0.9-10.7,7.4-18.5,8.6,5.7c0.4,6.8,2.1,26.6,6.2,38c1.9,5.3,4.9,9.4,10.4,11.3c3,1,11.8,1.1,10-4.9c-2-6.4-8.8-8.5-9.7-16.3
		c-0.9-8.2-3.6-44.2,5.7-43c8.5,1,4.5,29.2,20.5,53.3c2.9,4.4,6.6,7.4,12.1,7.3c3.8-0.1,7-1.6,9.4-4.5
		C155.1,183.5,161.2,174.5,157.6,171.5z"/>
	<path class="st1" d="M83.7,65.4c12.2-8.6,25.7-19.2,33.7-32.5c-4.3-9.1-10.9-18.4-19.2-23.2c-19.7-11.3-47.7,1-56.9,20.5
		c-8.3,17.5-6.7,38-6.3,56.9C52.8,84.3,69.2,75.7,83.7,65.4z"/>
	<path class="st2" d="M54.2,63c3.4-2,10.4-7,9.5-11.7c-1.2-6.3-12.3-7.7-17.1-5.5c-5.2,2.3-12.9,12.2-8.2,17.7
		C42.1,67.7,50.1,65.3,54.2,63z"/>
	<path class="st2" d="M88.6,50.6c9-0.7,22.4-16.3,6.2-15.2C86.4,35.9,75,51.6,88.6,50.6z"/>
	<path class="st1" d="M108.9,48.9c1.8,0.4,4,0.1,5.9-1c10.6-6.3-0.4-13.8-7.6-6.7C103.2,45.1,105.4,48.2,108.9,48.9z"/>
	<path class="st1" d="M72.1,48.5c1.3,0.3,2.9,0.1,4.3-0.7c7.6-4.6-0.3-10.1-5.5-4.9C67.9,45.7,69.5,48,72.1,48.5z"/>
	<path class="st1" d="M51.9,86.9c1.3,0.3,2.9,0.1,4.3-0.7c7.6-4.6-0.3-10.1-5.5-4.9C47.8,84.1,49.4,86.4,51.9,86.9z"/>
	<path class="st2" d="M109,34.6c2.6,0.5,5.6-0.4,8.3-2c-2.1-4.5-4.8-9-8-13C103.4,24.4,100.3,33,109,34.6z"/>
	<path class="st0" d="M38.6,37.4c8.6,5.4,24.5,2.8,33.6,0.3c12.4-3.3,26.2-10.3,33.6-21.3c0.1-0.2,0.2-0.3,0.3-0.5
		c-2.4-2.5-5-4.6-7.8-6.2c-19.7-11.3-47.7,1-56.9,20.5C40.3,32.6,39.3,35,38.6,37.4z"/>
	<g>
		
			<ellipse transform="matrix(1.346629e-002 -0.9999 0.9999 1.346629e-002 -0.319 128.9142)" class="st3" cx="65.2" cy="64.6" rx="15.2" ry="15.2"/>
		
			<ellipse transform="matrix(1.348750e-002 -0.9999 0.9999 1.348750e-002 -0.321 128.9123)" class="st4" cx="65.2" cy="64.6" rx="11.8" ry="11.8"/>
		
			<ellipse transform="matrix(1.344995e-002 -0.9999 0.9999 1.344995e-002 -0.3184 128.9149)" class="st5" cx="65.2" cy="64.6" rx="8.1" ry="8.1"/>
		
			<ellipse transform="matrix(1.344568e-002 -0.9999 0.9999 1.344568e-002 -0.3176 128.9154)" class="st6" cx="65.2" cy="64.6" rx="5.4" ry="5.4"/>
		
			<ellipse transform="matrix(1.348012e-002 -0.9999 0.9999 1.348012e-002 7.7735 129.8882)" class="st4" cx="69.7" cy="61" rx="3.7" ry="3.7"/>
	</g>
	<g>
		
			<ellipse transform="matrix(0.7166 -0.6975 0.6975 0.7166 -15.6932 87.6354)" class="st3" cx="100" cy="63.1" rx="15.2" ry="15.2"/>
		<ellipse transform="matrix(0.7165 -0.6975 0.6975 0.7165 -15.693 87.637)" class="st4" cx="100" cy="63.1" rx="11.8" ry="11.8"/>
		<ellipse transform="matrix(0.7166 -0.6975 0.6975 0.7166 -15.693 87.6354)" class="st5" cx="100" cy="63.1" rx="8.1" ry="8.1"/>
		<ellipse transform="matrix(0.7166 -0.6975 0.6975 0.7166 -15.6934 87.6343)" class="st6" cx="100" cy="63.1" rx="5.4" ry="5.4"/>
		<ellipse transform="matrix(0.7166 -0.6975 0.6975 0.7166 -16.8707 83.4272)" class="st4" cx="94.2" cy="62.5" rx="3.7" ry="3.7"/>
	</g>
	<path class="st7" d="M82.9,19.1c1.8,4,8.8,3.9,11.9,2.5c3-1.3,6.6-4.2,5.4-7.9C97.3,4.7,79.1,10.5,82.9,19.1z"/>
	<path class="st1" d="M52.3,120.4c-6.4-3.4-9.6-10.9-3.8-19c3.8-5.2,14.1-9.4,20.4-6.5c13.1,6,9.3,21.8-2.5,26.2
		C61.5,123,56.3,122.5,52.3,120.4z"/>
	<path class="st7" d="M73,12.6c1,2.3,5,2.2,6.8,1.4c1.7-0.7,3.7-2.4,3-4.5C81.1,4.5,70.8,7.8,73,12.6z"/>
	<g>
		<path class="st8" d="M70.6,84.3c3.8,0.7,7.7,2.5,10.4,3.2c7.3,1.9,18.8-5.7,24.9-1.1c4.6,3.5,2.4,11.8-0.6,15.5
			c-8.2,9.8-27.7,8.2-37.3,1.6c-4.5-3-9.9-9.9-7.1-15.6C62.8,83.9,66.6,83.5,70.6,84.3z"/>
		<path class="st9" d="M105.3,101.8c1.2-1.5,2.3-3.7,2.8-6c-1.8-0.9-3.5-0.9-4.9-1.2c-9-2.3-29.9-3-39.7,4.8
			c1.3,1.6,2.9,3.1,4.4,4.1C77.6,110,97.1,111.7,105.3,101.8z"/>
		<g>
			<defs>
				<path id="SVGID_1_" d="M70.6,84.3c3.8,0.7,7.7,2.5,10.4,3.2c7.3,1.9,18.8-5.7,24.9-1.1c4.6,3.5,2.4,11.8-0.6,15.5
					c-8.2,9.8-27.7,8.2-37.3,1.6c-4.5-3-9.9-9.9-7.1-15.6C62.8,83.9,66.6,83.5,70.6,84.3z"/>
			</defs>
			<clipPath id="SVGID_2_">
				<use xlink:href="#SVGID_1_"  style="overflow:visible;"/>
			</clipPath>
			<path class="st10" d="M61.7,80.6c0,2.3-1.6,10.1,2.3,11.3c5.9,1.9,5.9-6.4,7-9.2L61.7,80.6z"/>
			<g class="st11">
				<path class="st4" d="M94.3,81.9c0.1,0.2,0.2,0.3,0.2,0.5C94.5,82.2,94.4,82.1,94.3,81.9z"/>
				<path class="st4" d="M94.6,82.4c0.1,0.4,0,0.8,0,1.3L87,84.6C87.1,95.4,99.6,92.8,94.6,82.4z"/>
			</g>
			<path class="st10" d="M84.7,81.4c-0.8-0.4-0.5,0.3-0.9,0.4L76,81.2c-1.3,3-1.2,9.9,2.8,11.2C85.2,94.6,85,85.5,84.7,81.4z"/>
			<path class="st10" d="M107.5,79c-0.8-0.4-0.5,0.3-0.9,0.4l-7.8-0.6c-1.3,3-1.2,9.9,2.8,11.2C108,92.2,107.8,83.1,107.5,79z"/>
		</g>
	</g>
	<path class="st3" d="M84.4,128.7c-19.1-3.9-8.4,15.2-11.6,39c-2.7,20.3-13.5,23.1-13.5,23.1s-0.1,0.3-0.2,0.8
		c1.5,2,4.1,2.4,7.5-0.5c4.1-3.6,6.3-10.1,8-15.1c3.4-10,4.9-32.6,5.2-36.9c0.5-6,3.3-10.7,5.5-9.7
		C85.4,129.1,84.4,128.7,84.4,128.7z"/>
	<path class="st3" d="M58.1,134.7c1.2,0.6,0.9,1.5-1.1-1.6c-4.9-7.5-12.7-8.1-13.5-2.9c-2.7,17.4,2.6,19.4-0.9,36.7
		c-2,9.8-9,17.6-18.6,20.3c-9.6,2.7-19.7-0.7-21.3-11.6c-5,15.4,12.6,20.5,24.9,15.5C57.2,179.3,48.9,129.8,58.1,134.7z"/>
	<path class="st3" d="M88,139.2c0.9,22.1,3.1,35.3,6.5,44.8c1.9,5.3,5.4,8.2,10.9,10c2.9,1,11,0.7,9.6-4.9
		C93.5,193.1,93.8,145.6,88,139.2z"/>
	<path class="st3" d="M134.6,178.4c-9.5-9.7-14.9-28.6-14.7-41.3c0.2-17.9-11-6.7-11-6.7c3.5,25.6,10.5,34.4,22.7,52.7
		c2.9,4.4,6.6,7.4,12.1,7.3c3.8-0.1,7-1.6,9.4-4.5c1.7-2,6.2-8.6,5.6-12.4C153.5,181.6,142.1,186.1,134.6,178.4z"/>
	<path class="st12" d="M145.4,178.3c8.1,4.8,1.8,12.1-5.6,8.7C130.2,182.5,135.2,172.3,145.4,178.3z"/>
	<path class="st12" d="M60,177.9c2.6-7.3,7.6-4.1,5.7,2.3C63.3,188.6,56.6,187.1,60,177.9z"/>
	<path class="st1" d="M129.5,125.6c0-17,0-35.1-2.1-52.8c-2.1,1.5-3.8,2.7-4.3,3.2c-5.9,5.7-10.9,12.6-13.3,20.4
		c-3.9,12.6,0.7,24.3,11.1,32.1c2.7,2,5.6,3.7,8.6,5.1C129.5,131,129.5,128.3,129.5,125.6z"/>
</g>
</svg>
